<?xml version="1.0" standalone="no"?>
<!DOCTYPE svg PUBLIC "-//W3C//DTD SVG 20010904//EN"
 "http://www.w3.org/TR/2001/REC-SVG-20010904/DTD/svg10.dtd">
<svg version="1.0" xmlns="http://www.w3.org/2000/svg"
 width="124.000000pt" height="45.000000pt" viewBox="0 0 124.000000 45.000000"
 preserveAspectRatio="xMidYMid meet">
<metadata>
Created by potrace 1.10, written by Peter Selinger 2001-2011
</metadata>
<g transform="translate(0.000000,45.000000) scale(0.100000,-0.100000)"
fill="#000000" stroke="none">
<path d="M40 352 c-30 -30 -30 -32 -30 -134 0 -150 -4 -147 215 -147 99 0 182
4 198 11 18 7 31 7 40 0 15 -13 136 -13 161 0 12 7 22 6 29 -1 16 -16 108 -13
130 3 16 12 22 12 47 -2 27 -16 31 -16 57 0 25 14 31 14 47 2 14 -10 51 -14
133 -14 151 0 153 2 153 144 0 96 -2 107 -24 133 l-24 28 -244 -1 c-133 0
-270 -2 -303 -3 -33 -1 -143 -2 -245 -1 -102 0 -194 0 -205 0 -11 -1 -39 2
-62 5 -38 7 -45 5 -73 -23z m108 -24 c6 -7 9 -57 9 -113 l-2 -100 -55 -3 -55
-3 3 116 3 115 43 0 c24 0 48 -6 54 -12z m144 -103 c-3 -113 -4 -115 -26 -115
-22 0 -23 3 -18 47 5 45 4 47 -12 33 -13 -10 -16 -23 -13 -47 5 -29 3 -33 -16
-33 -21 0 -22 4 -24 103 -1 58 3 107 9 115 6 6 31 12 57 12 l46 0 -3 -115z
m123 0 l0 -110 -50 -3 -50 -3 0 116 0 116 50 -3 50 -3 0 -110z m75 56 c0 -33
5 -63 10 -66 6 -4 10 18 10 59 l0 66 33 0 c27 0 33 -4 33 -22 1 -84 5 -112 14
-98 5 8 10 39 10 68 0 49 1 52 26 52 19 0 25 -4 20 -15 -11 -31 -37 -196 -31
-205 4 -6 -8 -10 -28 -10 -25 0 -34 4 -34 18 1 63 -4 102 -13 102 -6 0 -10
-27 -10 -60 0 -59 0 -60 -28 -60 -27 0 -28 1 -43 98 -9 53 -19 105 -23 115 -7
14 -3 17 23 17 l31 0 0 -59z m285 -56 l0 -115 -26 0 c-26 0 -26 2 -21 47 5 45
4 47 -12 34 -13 -11 -16 -23 -11 -48 5 -30 4 -33 -20 -33 l-25 0 0 103 c0 67
4 107 12 115 7 7 32 12 58 12 l45 0 0 -115z m145 59 c0 -34 -4 -53 -10 -49 -5
3 -10 19 -10 36 0 16 -5 29 -11 29 -7 0 -9 -32 -7 -95 l3 -95 -25 0 -25 0 3
95 c3 64 0 95 -7 95 -6 0 -11 -11 -11 -24 0 -13 -7 -29 -15 -36 -13 -11 -15
-5 -15 44 l0 56 65 0 65 0 0 -56z m130 33 c0 -23 -17 -47 -32 -47 -4 0 -8 7
-8 15 0 8 -4 15 -10 15 -5 0 -10 -11 -10 -25 0 -14 5 -25 10 -25 6 0 10 -9 10
-20 0 -11 -4 -20 -10 -20 -5 0 -10 -16 -10 -35 0 -19 5 -35 10 -35 6 0 10 10
10 23 0 23 17 47 32 47 4 0 8 -22 8 -50 l0 -50 -52 0 -53 0 0 115 0 115 53 0
c48 0 52 -2 52 -23z m127 -62 c1 -44 4 -95 7 -113 4 -29 2 -32 -20 -32 -22 0
-24 4 -24 50 0 30 -4 50 -11 50 -7 0 -10 -18 -7 -50 3 -48 2 -50 -22 -50 l-25
0 0 115 0 116 50 -3 50 -3 2 -80z"/>
<path d="M98 275 c-4 -17 -1 -25 8 -25 8 0 14 11 14 25 0 32 -16 32 -22 0z"/>
<path d="M100 175 c0 -19 5 -35 10 -35 6 0 10 16 10 35 0 19 -4 35 -10 35 -5
0 -10 -16 -10 -35z"/>
<path d="M220 260 c0 -31 3 -38 15 -34 21 8 21 74 0 74 -11 0 -15 -11 -15 -40z"/>
<path d="M360 219 c0 -51 4 -78 10 -74 13 8 13 155 0 155 -6 0 -10 -34 -10
-81z"/>
<path d="M707 293 c-4 -3 -7 -22 -7 -40 0 -47 24 -38 28 10 3 34 -5 46 -21 30z"/>
<path d="M1120 269 c0 -17 4 -28 10 -24 6 3 10 17 10 31 0 13 -4 24 -10 24 -5
0 -10 -14 -10 -31z"/>
</g>
</svg>
